<svg xmlns="http://www.w3.org/2000/svg" viewBox="0 0 1280 660" font-family="Helvetica,Arial,sans-serif">
  <title>Multi-macro verification chain for example 04</title>
  <desc>
    Verification pipeline for the counter + ALU multi-macro example.
    Two per-macro tracks (RTL sim -> Classic flow with synth + GL sim +
    signoff inside one librelane invocation -> integration artefacts)
    flow into chip-top integration + full chip signoff. RTL sim and GL
    sim use distinct colours so the cross-check arc reads at a glance.
  </desc>

  <style>
    .rtl-box     { fill:#e6f2ff; stroke:#003b73; stroke-width:1.5; }
    .rtlsim-box  { fill:#fff3e0; stroke:#b26500; stroke-width:1.5; }
    .glsim-box   { fill:#fff8d6; stroke:#9a7f00; stroke-width:1.5; }
    .synth-box   { fill:#eaf6e6; stroke:#4a7c3a; stroke-width:1.5; }
    .signoff-box { fill:#f7e0e0; stroke:#8b0000; stroke-width:1.5; }
    .integ-box   { fill:#e9defa; stroke:#4b2a91; stroke-width:1.5; }
    .orchestrator-frame { fill:none; stroke:#b00; stroke-width:1.6; stroke-dasharray:6,4; }

    .label       { font-size:15px; fill:#111; text-anchor:middle; font-weight:bold; }
    .sublabel    { font-size:12px; fill:#333; text-anchor:middle; }
    .tool        { font-size:11px; fill:#666; text-anchor:middle; font-style:italic; }
    .title       { font-size:22px; fill:#111; text-anchor:middle; font-weight:bold; }
    .caption     { font-size:13px; fill:#333; text-anchor:middle; font-style:italic; }
    .arrow       { fill:none; stroke:#555; stroke-width:2; marker-end:url(#arrow); }
    .arrow-soft  { fill:none; stroke:#999; stroke-width:1.5; stroke-dasharray:5,3; marker-end:url(#arrow); }
    .rail        { fill:none; stroke:#555; stroke-width:1.6; }
    .rail-arrow  { fill:none; stroke:#555; stroke-width:2; marker-end:url(#arrow); }
    .track-label { font-size:14px; fill:#111; font-weight:bold; text-anchor:start; }
    .frame-label { font-size:12px; fill:#b00; font-weight:bold; text-anchor:middle; }
  </style>

  <defs>
    <marker id="arrow" viewBox="0 0 10 10" refX="9" refY="5" markerWidth="7" markerHeight="7" orient="auto">
      <path d="M0,0 L0,10 L9,5 z" fill="#555"/>
    </marker>
  </defs>

  <text class="title"   x="630" y="28">Verification chain — example 04 (counter + ALU multi-macro)</text>
  <text class="caption" x="630" y="48">Every box maps to one notebook step. Dashed arc = RTL vs GL equivalence cross-check.</text>

  <!-- track labels.  'chip-top integration' is split across two lines
       so the long label does not collide with chip_core_multi.sv at
       x=130. -->
  <text class="track-label" x="30" y="115">counter</text>
  <text class="track-label" x="30" y="295">alu_macro</text>
  <text class="track-label" x="30" y="468">chip-top</text>
  <text class="track-label" x="30" y="486">integration</text>

  <!-- ============================================================ -->
  <!-- COUNTER TRACK                                                 -->
  <!-- ============================================================ -->

  <rect class="rtl-box" x="130" y="80"  width="110" height="70" rx="6"/>
  <text class="label"    x="185" y="108">counter.sv</text>
  <text class="sublabel" x="185" y="128">8-bit register</text>
  <text class="tool"     x="185" y="143">clk, rst_n, en, q[7:0]</text>

  <rect class="rtlsim-box" x="290" y="80"  width="130" height="70" rx="6"/>
  <text class="label"    x="355" y="108">RTL sim</text>
  <text class="sublabel" x="355" y="128">test_counter.py</text>
  <text class="tool"     x="355" y="143">cocotb + iverilog</text>

  <!-- one-librelane-call orchestrator frame for counter track -->
  <rect class="orchestrator-frame" x="455" y="68" width="800" height="98" rx="8"/>
  <text class="frame-label" x="460" y="63" text-anchor="start">1× librelane call for counter macro  ·  Classic flow + --save-views-to</text>

  <rect class="synth-box" x="470" y="80"  width="150" height="70" rx="6"/>
  <text class="label"    x="545" y="108">Synthesis</text>
  <text class="sublabel" x="545" y="128">counter.nl.v</text>
  <text class="tool"     x="545" y="143">yosys</text>

  <rect class="glsim-box" x="670" y="80"  width="130" height="70" rx="6"/>
  <text class="label"    x="735" y="108">GL sim</text>
  <text class="sublabel" x="735" y="128">drives counter.nl.v</text>
  <text class="tool"     x="735" y="143">iverilog + cocotb</text>

  <rect class="signoff-box" x="850" y="80" width="170" height="70" rx="6"/>
  <text class="label"    x="935" y="104">Harden + Signoff</text>
  <text class="sublabel" x="935" y="123">DRC | LVS | STA × 3 corners</text>
  <text class="tool"     x="935" y="140">Magic + KLayout</text>

  <rect class="integ-box" x="1070" y="80" width="170" height="70" rx="6"/>
  <text class="label"    x="1155" y="108">counter macro</text>
  <text class="sublabel" x="1155" y="128">.gds / .lef / .lib / .nl.v</text>
  <text class="tool"     x="1155" y="143">written by --save-views-to</text>

  <!-- counter horizontal arrows -->
  <path class="arrow" d="M240,115 L290,115"/>
  <path class="arrow" d="M420,115 L470,115"/>
  <path class="arrow" d="M620,115 L670,115"/>
  <path class="arrow" d="M800,115 L850,115"/>
  <path class="arrow" d="M1020,115 L1070,115"/>
  <!-- equivalence cross-check arc: RTL sim ~~ GL sim -->
  <path class="arrow-soft" d="M355,150 C355,200 735,200 735,150"/>
  <text class="tool" x="545" y="195">equivalence check: RTL vs GL</text>

  <!-- ============================================================ -->
  <!-- ALU_MACRO TRACK                                               -->
  <!-- ============================================================ -->

  <rect class="rtl-box" x="130" y="260"  width="110" height="70" rx="6"/>
  <text class="label"    x="185" y="288">alu_macro.sv</text>
  <text class="sublabel" x="185" y="308">wraps alu.sv</text>
  <text class="tool"     x="185" y="323">registered I/O</text>

  <rect class="rtlsim-box" x="290" y="260"  width="130" height="70" rx="6"/>
  <text class="label"    x="355" y="288">RTL sim</text>
  <text class="sublabel" x="355" y="308">test_alu.py + macro</text>
  <text class="tool"     x="355" y="323">cocotb + iverilog</text>

  <!-- one-librelane-call orchestrator frame for alu_macro track -->
  <rect class="orchestrator-frame" x="455" y="248" width="800" height="98" rx="8"/>
  <text class="frame-label" x="460" y="243" text-anchor="start">1× librelane call for alu_macro  ·  Classic flow + --save-views-to</text>

  <rect class="synth-box" x="470" y="260"  width="150" height="70" rx="6"/>
  <text class="label"    x="545" y="288">Synthesis</text>
  <text class="sublabel" x="545" y="308">alu_macro.nl.v</text>
  <text class="tool"     x="545" y="323">yosys</text>

  <rect class="glsim-box" x="670" y="260"  width="130" height="70" rx="6"/>
  <text class="label"    x="735" y="288">GL sim</text>
  <text class="sublabel" x="735" y="308">drives alu_macro.nl.v</text>
  <text class="tool"     x="735" y="323">iverilog + cocotb</text>

  <rect class="signoff-box" x="850" y="260" width="170" height="70" rx="6"/>
  <text class="label"    x="935" y="284">Harden + Signoff</text>
  <text class="sublabel" x="935" y="303">DRC | LVS | STA × 3 corners</text>
  <text class="tool"     x="935" y="320">Magic + KLayout</text>

  <rect class="integ-box" x="1070" y="260" width="170" height="70" rx="6"/>
  <text class="label"    x="1155" y="288">alu_macro</text>
  <text class="sublabel" x="1155" y="308">.gds / .lef / .lib / .nl.v</text>
  <text class="tool"     x="1155" y="323">written by --save-views-to</text>

  <!-- alu horizontal arrows -->
  <path class="arrow" d="M240,295 L290,295"/>
  <path class="arrow" d="M420,295 L470,295"/>
  <path class="arrow" d="M620,295 L670,295"/>
  <path class="arrow" d="M800,295 L850,295"/>
  <path class="arrow" d="M1020,295 L1070,295"/>
  <path class="arrow-soft" d="M355,330 C355,378 735,378 735,330"/>
  <text class="tool" x="545" y="373">equivalence check: RTL vs GL</text>

  <!-- ============================================================ -->
  <!-- CHIP-TOP TRACK                                                -->
  <!-- ============================================================ -->

  <rect class="rtl-box" x="130" y="440" width="130" height="70" rx="6"/>
  <text class="label"    x="195" y="468">chip_core_multi.sv</text>
  <text class="sublabel" x="195" y="488">instantiates both macros</text>
  <text class="tool"     x="195" y="503">no RTL primitives below</text>

  <rect class="synth-box" x="300" y="440" width="170" height="70" rx="6"/>
  <text class="label"    x="385" y="468">Chip-flow synth</text>
  <text class="sublabel" x="385" y="488">macros via vh: blackbox</text>
  <text class="tool"     x="385" y="503">yosys (Chip flow)</text>

  <rect class="integ-box" x="510" y="440" width="170" height="70" rx="6"/>
  <text class="label"    x="595" y="468">Padring placement</text>
  <text class="sublabel" x="595" y="488">counter + alu + logo</text>
  <text class="tool"     x="595" y="503">OpenROAD FP/PnR</text>

  <rect class="signoff-box" x="720" y="440" width="190" height="70" rx="6"/>
  <text class="label"    x="815" y="464">Chip signoff</text>
  <text class="sublabel" x="815" y="483">DRC | LVS | STA | antenna</text>
  <text class="tool"     x="815" y="500">Magic + KLayout</text>

  <rect class="integ-box" x="950" y="440" width="180" height="70" rx="6"/>
  <text class="label"    x="1040" y="468">chip_top.gds</text>
  <text class="sublabel" x="1040" y="488">2935 × 2935 µm</text>
  <text class="tool"     x="1040" y="503">tape-out ready</text>

  <!-- chip-top horizontal arrows -->
  <path class="arrow" d="M260,475 L300,475"/>
  <path class="arrow" d="M470,475 L510,475"/>
  <path class="arrow" d="M680,475 L720,475"/>
  <path class="arrow" d="M910,475 L950,475"/>

  <!-- ============================================================ -->
  <!-- MACRO -> CHIP-TOP RAIL                                        -->
  <!-- counter integ-box (1155, 150) and alu integ-box (1155, 330)   -->
  <!-- both feed the rail at y=410, which delivers into chip-flow    -->
  <!-- synth from the top edge (385, 440). No backward arrows.       -->
  <!-- ============================================================ -->

  <!-- vertical drops from each macro's integ-box to the rail.
       The counter rail exits to the right of both integ-boxes
       (x=1265, outside the x=1070..1240 box range) so it does NOT
       cross the alu_macro integ-box on its way down to y=410. -->
  <path class="rail"       d="M1240,115 L1265,115 L1265,410"/>
  <path class="rail"       d="M1155,330 L1155,410"/>

  <!-- horizontal rail to a feeder column above chip-flow synth -->
  <path class="rail"       d="M1265,410 L385,410"/>

  <!-- arrow drop into chip-flow synth top -->
  <path class="rail-arrow" d="M385,410 L385,440"/>

  <!-- rail caption -->
  <text class="tool" x="770" y="403" text-anchor="middle">.gds / .lef / .lib / .nl.v of each macro feed chip_top_multi_patch.yaml MACROS:</text>

  <!-- ============================================================ -->
  <!-- LEGEND (moved below all tracks; viewBox grew to 660)          -->
  <!-- ============================================================ -->
  <!-- Inline style="text-anchor:start" wins over the .sublabel CSS
       rule (which sets text-anchor:middle). Without this override the
       labels would be centered on x and overlap the colour swatches. -->
  <g transform="translate(30,575)">
    <rect class="rtl-box"     x="0"    y="0" width="18" height="14"/>
    <text class="sublabel"    x="26"   y="11" style="text-anchor:start">RTL / source</text>
    <rect class="rtlsim-box"  x="160"  y="0" width="18" height="14"/>
    <text class="sublabel"    x="186"  y="11" style="text-anchor:start">RTL sim</text>
    <rect class="glsim-box"   x="290"  y="0" width="18" height="14"/>
    <text class="sublabel"    x="316"  y="11" style="text-anchor:start">GL sim</text>
    <rect class="synth-box"   x="410"  y="0" width="18" height="14"/>
    <text class="sublabel"    x="436"  y="11" style="text-anchor:start">synthesis</text>
    <rect class="signoff-box" x="550"  y="0" width="18" height="14"/>
    <text class="sublabel"    x="576"  y="11" style="text-anchor:start">signoff (DRC / LVS / STA / antenna)</text>
    <rect class="integ-box"   x="900"  y="0" width="18" height="14"/>
    <text class="sublabel"    x="926"  y="11" style="text-anchor:start">integration artefact</text>
  </g>

  <text class="tool" x="630" y="615" text-anchor="middle">Note: RTL sim and GL sim use distinct fills so the dashed equivalence-check arc reads at a glance.</text>

  <text class="sublabel" x="630" y="645" font-size="11" fill="#777">
    chipathon-gf180mcu-librelane-examples — diagrams/multi_macro_verification.svg
  </text>
</svg>
